<svg width="400" height="225" viewBox="0 0 400 225" xmlns="http://www.w3.org/2000/svg">
  <defs>
    <linearGradient id="project3Grad" x1="0%" y1="0%" x2="100%" y2="100%">
      <stop offset="0%" style="stop-color:#ff6b6b;stop-opacity:1" />
      <stop offset="100%" style="stop-color:#feca57;stop-opacity:1" />
    </linearGradient>
  </defs>
  <rect width="400" height="225" fill="url(#project3Grad)"/>
  
  <!-- Dashboard mockup -->
  <rect x="30" y="40" width="340" height="140" rx="8" fill="white" opacity="0.95"/>
  
  <!-- Header -->
  <rect x="30" y="40" width="340" height="30" rx="8" fill="#374151"/>
  <rect x="45" y="50" width="60" height="10" rx="5" fill="white"/>
  <circle cx="310" cy="55" r="8" fill="#10b981"/>
  
  <!-- Sidebar -->
  <rect x="45" y="85" width="60" height="80" rx="4" fill="#f9fafb"/>
  <rect x="50" y="95" width="50" height="4" rx="2" fill="#d1d5db"/>
  <rect x="50" y="105" width="40" height="4" rx="2" fill="#d1d5db"/>
  <rect x="50" y="115" width="45" height="4" rx="2" fill="#d1d5db"/>
  
  <!-- Main content -->
  <rect x="120" y="85" width="235" height="80" rx="4" fill="#ffffff"/>
  
  <!-- Charts -->
  <rect x="130" y="95" width="100" height="25" rx="4" fill="#f3f4f6"/>
  <rect x="240" y="95" width="100" height="25" rx="4" fill="#f3f4f6"/>
  
  <!-- Data visualization -->
  <rect x="135" y="100" width="8" height="15" fill="#3b82f6"/>
  <rect x="150" y="105" width="8" height="10" fill="#10b981"/>
  <rect x="165" y="98" width="8" height="17" fill="#f59e0b"/>
  <rect x="180" y="102" width="8" height="13" fill="#ef4444"/>
  
  <!-- Table -->
  <rect x="130" y="135" width="210" height="20" rx="2" fill="#f8fafc" stroke="#e2e8f0"/>
  <line x1="180" y1="135" x2="180" y2="155" stroke="#e2e8f0"/>
  <line x1="230" y1="135" x2="230" y2="155" stroke="#e2e8f0"/>
  <line x1="280" y1="135" x2="280" y2="155" stroke="#e2e8f0"/>
  
  <text x="200" y="200" text-anchor="middle" fill="white" font-family="Arial, sans-serif" font-size="14" font-weight="bold">Analytics Dashboard</text>
</svg> 