<svg width="400" height="225" viewBox="0 0 400 225" xmlns="http://www.w3.org/2000/svg">
  <defs>
    <linearGradient id="project2Grad" x1="0%" y1="0%" x2="100%" y2="100%">
      <stop offset="0%" style="stop-color:#11998e;stop-opacity:1" />
      <stop offset="100%" style="stop-color:#38ef7d;stop-opacity:1" />
    </linearGradient>
  </defs>
  <rect width="400" height="225" fill="url(#project2Grad)"/>
  
  <!-- Mobile mockup -->
  <rect x="150" y="20" width="100" height="180" rx="12" fill="white" opacity="0.95"/>
  <rect x="150" y="20" width="100" height="20" rx="12" fill="#1f2937"/>
  <circle cx="200" cy="30" r="2" fill="white"/>
  
  <!-- App content -->
  <rect x="160" y="55" width="80" height="6" rx="3" fill="#e5e7eb"/>
  <rect x="160" y="70" width="60" height="4" rx="2" fill="#d1d5db"/>
  
  <!-- Chart mockup -->
  <rect x="160" y="85" width="80" height="40" rx="4" fill="#f3f4f6"/>
  <path d="M165 115 L175 105 L185 110 L195 100 L205 95 L215 105 L225 95 L235 100" stroke="#10b981" stroke-width="2" fill="none"/>
  
  <!-- Buttons -->
  <rect x="160" y="135" width="35" height="15" rx="7" fill="#3b82f6"/>
  <rect x="205" y="135" width="35" height="15" rx="7" fill="#e5e7eb"/>
  
  <!-- List items -->
  <rect x="160" y="160" width="80" height="8" rx="4" fill="#f9fafb" stroke="#e5e7eb"/>
  <rect x="160" y="175" width="80" height="8" rx="4" fill="#f9fafb" stroke="#e5e7eb"/>
  
  <text x="200" y="210" text-anchor="middle" fill="white" font-family="Arial, sans-serif" font-size="14" font-weight="bold">Task Management App</text>
</svg> 